<svg width="754" height="702" viewBox="0 0 754 702" fill="none" xmlns="http://www.w3.org/2000/svg">
<path fill-rule="evenodd" clip-rule="evenodd" d="M442.869 0.71545L442.442 0.098877L442.037 0.729676L432.142 16.1312L432.134 16.1432L432.127 16.1556L413.86 48.4988L413.825 48.5611L413.809 48.6307L407.002 77.7068L394.982 86.068L394.87 86.1459L394.813 86.2699L389.865 97.051L385.052 107.541H365.583H365.374L365.227 107.689L354.619 118.423L328.277 133.651L299.599 118.38L299.489 118.322H299.364H260.547H246.939L218.863 107.574L218.777 107.541H218.684H184.618L159.641 86.0991L159.122 85.6534L158.855 86.2835L145.325 118.226L105.404 107.558L105.341 107.541H105.275H85.4858H44.3846H44.1648L44.0162 107.703L34.3672 118.216L11.1025 107.586L10.7721 107.435L10.5264 107.703L0.631629 118.484L0.5 118.627V118.822V134.223V134.553L0.803243 134.683L20.2895 143.024V171.187V171.528L20.6071 171.653L44.2023 180.893L44.2902 180.928H44.3846H59.1073V190.439V190.687L59.305 190.837L74.5277 202.388L74.6617 202.49H74.83H85.4858H114.67V232.793V233.006L114.824 233.154L145.26 262.407L145.269 262.416L168.552 285.973L135.321 330.293L135.292 330.331L135.271 330.375L114.72 372.729L114.572 373.035L114.802 373.286L135.221 395.474V413.761V414.082L135.512 414.215L168.931 429.585L184.097 443.394L184.24 443.524H184.433H218.432L229.372 458.281L201.682 474.939L201.303 475.167L201.482 475.57L209.855 494.437L218.127 513.079L201.5 543.665L201.439 543.777V543.904V587.799V632.463V632.963H201.939H246.846H247.177L247.307 632.658L260.937 600.48L283.92 588.478L298.916 618.823L299.163 619.323L299.634 619.023L328.434 600.62H354.787L384.872 618.883V647.865V648.365H385.372H414.113L432.24 663.648L432.38 663.766H432.563H452.938L477.919 683.679L477.988 683.734L478.071 683.762L530.589 701.474L530.839 701.558L531.049 701.4L554.379 683.887L584.538 701.432L584.927 701.659L585.193 701.295L591.663 692.439L597.983 683.788H648.639L698.793 701.471L699.035 701.557L699.246 701.41L753.286 663.676L753.5 663.527V663.266V632.463V632.341L753.444 632.233L721.476 570.627L721.471 570.616L695.211 522.871L668.984 475.184L664.813 458.306L657.583 429.043L657.563 428.962L657.518 428.892L585.21 316.512L531.196 232.564L520.893 206.427L510.571 180.245L478.703 99.4056L453.592 16.2569L453.569 16.1817L453.525 16.117L442.869 0.71545ZM341.059 129.132L333.302 131.902L355.177 119.255L355.236 119.221L355.283 119.173L365.792 108.541H385.372H385.693L385.827 108.249L390.536 97.9867L406.945 108.317V118.822V118.892L406.965 118.96L413.815 142.832L413.846 142.94L413.92 143.024L432.187 163.816L432.282 163.924L432.419 163.965L452.848 170.089L463.414 180.779L463.482 180.848L463.57 180.887L474.226 185.507L474.321 185.548H474.425H501.065H501.185L501.292 185.494L509.843 181.124L519.645 205.988L510.18 204.576L509.999 204.549L509.843 204.645L488.745 217.662H464.007L453.613 204.893V191.497L464.019 185.481L463.519 184.615L452.863 190.776L452.613 190.92V191.209V205.07V205.248L452.726 205.386L463.07 218.095L445.943 232.409L445.679 232.63L445.79 232.955L452.64 252.977L452.756 253.315H453.113H463.541L473.925 265.323V285.723L463.414 296.358L463.269 296.504V296.709V309.801V323.374L452.979 329.323H432.563H432.443L432.337 329.377L414.176 338.564H400.787L390.654 329.451L390.331 329.16L389.998 329.44L370.192 346.076L358.472 333.477V316.783V316.413L358.118 316.304L335.367 309.348L317.968 296.337L308.105 285.59L307.849 285.311L307.511 285.482L296.232 291.188L299.812 271.631L317.857 262.502L318.132 262.363V262.056V253.043L328.15 244.355L334.701 256.138L335.264 257.152L335.614 256.046L341.703 236.794L341.727 236.721V236.643V232.793V206.61V190.559L355.303 163.851L365.061 158.535L365.185 158.467L365.255 158.345L370.583 149.104L370.65 148.989V148.855V134.223V133.916L370.376 133.777L361.242 129.157L361.135 129.103H361.016H341.227H341.14L341.059 129.132ZM407.712 107.618L390.957 97.0698L395.665 86.811L407.731 78.4181L407.888 78.3085L407.932 78.1216L414.766 48.9283L432.991 16.6596L442.473 1.90099L452.657 16.6214L477.752 99.7143L477.758 99.734L477.766 99.7532L509.474 180.189L500.944 184.548H474.529L464.057 180.008L453.469 169.295L453.379 169.205L453.257 169.168L432.844 163.048L414.745 142.448L407.945 118.751V108.041V107.765L407.712 107.618ZM510.213 205.592L520.068 207.062L530.284 232.976L530.302 233.022L530.329 233.064L584.082 316.608L572.412 323.201L552.746 329.323H530.749H510.106H509.896L509.749 329.473L500.942 338.475L478.427 329.363L478.418 329.359L464.269 323.332V309.801V296.915L474.781 286.28L474.925 286.134V285.928V265.136V264.95L474.803 264.809L464.147 252.488L463.998 252.315H463.769H453.471L446.847 232.956L463.951 218.662H488.887H489.028L489.149 218.587L510.213 205.592ZM572.857 324.098L584.624 317.45L656.632 429.363L663.781 458.296L656.732 466.554L639.275 483.448L621.324 495.556L603.431 483.488L593.594 466.644L593.365 466.253L592.953 466.442L584.581 470.293L584.289 470.427V470.747V495.659H567.468L553.146 483.458L553.006 483.338H552.822H531.037L523.79 470.875L539.427 458.822L539.464 458.793L539.495 458.758L553.195 443.356L553.322 443.214V443.024V429.163V406.831V406.66L553.217 406.525L539.517 388.813L539.422 388.69L539.273 388.642L510.427 379.455L501.565 365.868V339.268L510.316 330.323H530.749H552.822H552.898L552.97 330.3L572.76 324.14L572.811 324.124L572.857 324.098ZM657.477 467.221L664.076 459.491L668.029 475.487L668.044 475.551L668.076 475.608L694.069 522.869L687.44 525.692H674.603H664.328H664.267L664.207 525.707L639.47 531.868L639.392 531.887L639.324 531.93L621.591 543.144L615.773 526.221L621.777 513.312L621.824 513.212V513.101V496.425L639.871 484.253L639.907 484.228L639.939 484.198L657.445 467.256L657.462 467.239L657.477 467.221ZM687.739 526.652L694.553 523.749L720.589 571.087L720.594 571.098L752.5 632.585V663.005L698.884 700.443L649.225 682.934V663.266V663.129L649.155 663.011L640.021 647.61L639.955 647.497L639.841 647.432L629.351 641.367L621.857 618.621L629.398 600.31L629.435 600.219V600.12V587.799V587.63L629.333 587.496L621.722 577.485L621.461 577.142L621.084 577.349L602.816 587.36L602.666 587.443L602.598 587.6L597.307 599.835L585.289 611.994V600.12V599.914L585.145 599.768L573.111 587.593V564.107L585.174 549.615L585.18 549.607L585.187 549.598L598.036 532.775L614.926 526.831L620.851 544.067L621.057 544.665L621.591 544.327L639.79 532.819L664.389 526.692H674.603H687.543H687.645L687.739 526.652ZM648.225 663.403V682.788H597.729H597.475L597.325 682.993L591.164 691.427L580.723 683.048V674.114L585.257 657.292L593.601 641.943L593.727 641.712L593.607 641.477L581.01 616.736L584.289 614.186V614.428L585.145 613.563L598.084 600.471L598.15 600.404L598.188 600.318L603.448 588.155L621.187 578.433L628.435 587.967V600.021L620.862 618.411L620.791 618.582L620.849 618.758L628.46 641.86L628.52 642.041L628.685 642.137L639.228 648.232L648.225 663.403ZM584.289 612.919V600.325L572.256 588.15L572.111 588.004V587.799V563.926V563.745L572.227 563.606L584.392 548.991L584.405 548.975L597.331 532.05L597.422 531.931L597.563 531.881L614.87 525.791L620.824 512.99V496.425L602.777 484.253L602.682 484.189L602.625 484.09L592.959 467.54L585.289 471.067V496.159V496.659H584.789H567.283H567.099L566.959 496.54L552.638 484.338H530.749H530.461L530.317 484.09L522.899 471.331L506.526 475.849L506.167 475.948L505.969 475.634L500.92 467.606L489.387 475.629V489.229V489.45L489.223 489.598L481.667 496.479L474.855 507.966L474.781 508.091L474.651 508.157L464.16 513.464L458.26 527.641L467.955 538.958L468.006 539.018L468.036 539.091L476.409 559.113L476.424 559.15L476.434 559.19L481.762 581.522L481.785 581.62L481.769 581.719L478.731 600.161V613.048L489.228 627.462L506.449 637.31L522.984 631.987L523.004 631.981L523.024 631.976L542.813 627.356L542.929 627.329L543.045 627.357L561.82 631.916L579.891 615.917L580.375 615.489L580.548 615.829L584.289 612.919ZM579.91 683.678L590.573 692.235L584.651 700.341L554.596 682.856L554.309 682.689L554.044 682.888L530.659 700.442L478.474 682.842L453.425 662.875L453.288 662.766H453.113H432.745L414.618 647.482L414.478 647.365H414.296H385.872V618.602V618.32L385.632 618.174L355.427 599.838V581.638V581.138H354.927H335.138H318.132V571.128L328.511 564.377L341.395 559.777L341.727 559.658V559.306V539.591L354.886 532.934L364.535 539.693L364.87 539.928L365.166 539.647L376.976 528.444L387.156 539.479V549.238L384.885 559.195L384.829 559.44L384.993 559.631L394.887 571.182L394.944 571.249L395.021 571.292L414.049 582.073L414.31 582.221L414.563 582.061L420.652 578.21L420.795 578.12L420.853 577.961L427.449 560.167L439.806 571.198L452.716 588.102L452.866 588.299H453.113H474.056L477.731 600.195V613.211V613.374L477.827 613.505L488.482 628.137L488.546 628.224L488.638 628.277L506.145 638.288L506.336 638.397L506.546 638.33L523.272 632.945L542.925 628.357L561.837 632.949L562.091 633.011L562.287 632.837L580.07 617.094L592.597 641.696L584.35 656.867L584.322 656.919L584.307 656.975L579.74 673.917L579.723 673.981V674.047V683.288V683.528L579.91 683.678ZM354.427 582.138V599.62H328.287H328.141L328.018 599.698L299.565 617.88L284.59 587.577L284.363 587.119L283.91 587.355L260.315 599.677L260.156 599.76L260.086 599.925L246.515 631.963H202.439V587.799V544.031L219.124 513.34L219.241 513.123L219.141 512.898L211.809 496.375L218.337 502.68L218.341 502.684L229.758 513.465L229.902 513.601H230.101H238.474H238.974V513.101V502.466L247.18 489.635L260.341 484.457L267.733 496.422L267.785 496.507L267.865 496.565L283.849 508.116L283.98 508.211H284.142H299.067L307.237 523.239V538.989L299.123 543.466L299.06 543.501L299.009 543.553L293.681 548.943L293.458 549.168L293.567 549.466L298.895 564.097L298.973 564.312L299.187 564.394L317.132 571.202V581.638V582.138H317.632H335.138H354.427ZM219.027 501.957L210.729 493.942L202.575 475.568L230.359 458.854L230.392 458.834L230.421 458.81L243.275 448.1L260.674 443.508L260.882 443.453L260.985 443.265L268.454 429.663H284.142H294.036H294.131L294.22 429.628L307.912 424.24L307.92 424.237L328.463 416.54L328.601 416.488L328.689 416.369L335.229 407.547L350.046 419.54L350.06 419.552L350.076 419.563L364.537 429.574L364.542 429.577L384.91 443.315L387.156 458.463V475.236L376.666 493.809L370.015 495.678L369.65 495.781V496.159V513.101V513.212L369.697 513.313L376.394 527.618L364.774 538.64L355.214 531.944L354.969 531.772L354.701 531.907L341.001 538.838L340.727 538.976V539.284V558.953L328.119 563.455L328.064 563.475L328.015 563.507L317.572 570.299L299.756 563.54L294.615 549.421L299.669 544.307L307.978 539.721L308.237 539.579V539.284V523.112V522.985L308.176 522.873L299.804 507.472L299.662 507.211H299.364H284.303L268.531 495.812L260.972 483.575L260.752 483.22L260.363 483.373L246.663 488.763L246.512 488.823L246.425 488.959L238.052 502.051L237.974 502.174V502.32V512.601H230.3L219.032 501.96L219.027 501.957ZM388.15 458.352L385.872 442.987V423.772V416.289L395.464 407.331H420.385H440.174H440.316L440.436 407.256L457.822 396.549H475.947H476.015L476.08 396.531L501.198 389.601L501.328 389.565L501.422 389.468L510.248 380.448L538.821 389.548L552.322 407.001V429.163V442.834L538.779 458.058L522.91 470.291L506.618 474.786L501.488 466.63L501.209 466.187L500.779 466.486L488.601 474.957L488.387 475.106V475.367V489.008L480.939 495.79L480.883 495.84L480.845 495.904L474.069 507.33L463.544 512.655L463.379 512.738L463.308 512.909L457.219 527.54L457.1 527.824L457.3 528.058L467.144 539.549L475.47 559.461L480.766 581.656L478.082 597.945L474.903 587.651L474.794 587.299H474.425H453.361L440.571 570.553L440.543 570.516L440.507 570.484L427.568 558.933L427.021 558.445L426.766 559.132L419.975 577.455L414.281 581.055L395.59 570.465L385.916 559.172L388.143 549.406L388.156 549.351V549.295V539.284V539.088L388.023 538.945L377.42 527.45L370.65 512.99V496.538L377.135 494.716L377.334 494.66L377.435 494.48L388.091 475.613L388.156 475.499V475.367V458.426V458.389L388.15 458.352ZM500.646 366.29L509.468 379.815L500.802 388.673L475.88 395.549H457.68H457.539L457.418 395.624L440.033 406.331H420.385H395.267H395.07L394.926 406.465L385.031 415.706L384.872 415.854V416.071V423.772V442.084L365.106 428.752L365.101 428.748L350.66 418.751L335.452 406.442L335.047 406.114L334.736 406.533L327.974 415.655L307.561 423.304L307.554 423.307L293.942 428.663H284.142H268.158H267.862L267.72 428.922L260.212 442.595L242.913 447.161L242.806 447.189L242.72 447.26L230.188 457.703L219.086 442.726L218.936 442.524H218.684H184.627L169.547 428.793L169.49 428.741L169.419 428.708L136.221 413.441V395.279V380.038L145.744 366.697L155.851 373.27L161.124 389.275L161.237 389.619H161.599H176.822H176.968L177.091 389.54L191.553 380.299L191.565 380.291L191.576 380.283L202.101 372.677H218.684H218.811L218.922 372.617L230.228 366.516H243.04H243.54V366.016V355.235V355.166L243.522 355.099L239.03 339.194L247.147 330.236L260.312 324.316L267.71 339.285L268.052 339.978L268.544 339.382L276.113 330.191L294.327 317.189L294.521 317.051L294.535 316.813L296.04 292.406L307.625 286.546L317.263 297.048L317.295 297.082L317.332 297.11L334.838 310.201L334.908 310.253L334.991 310.279L357.472 317.152V333.673V333.87L357.606 334.014L369.784 347.105L370.107 347.453L370.471 347.147L390.309 330.485L400.261 339.436L400.403 339.564H400.595H414.296H414.415L414.521 339.51L432.682 330.323H453.113H453.247L453.364 330.256L463.803 324.22L478.035 330.283L478.043 330.286L500.565 339.401V366.016V366.165L500.646 366.29ZM115.67 232.58V202.149L123.15 191.554L130.707 185.437L130.811 185.353L130.859 185.228L136.137 171.496L145.884 163.911L156.497 158.542L156.63 158.475L156.704 158.345L161.986 149.185L169.525 143.083L169.556 143.058L169.582 143.028L177.194 134.557L177.322 134.415V134.223V130.103H184.131L190.84 142.926L190.981 143.194H191.283H201.775L210.015 149.257L210.312 149.475L210.608 149.257L218.981 143.097L219.044 143.05L219.09 142.986L225.03 134.723H238.474H246.59L252.529 142.986L252.848 143.429L253.261 143.073L266.234 131.916L260.114 142.443L260.047 142.559V142.694V158.096V171.187V171.315L260.108 171.428L267.658 185.177V205.07V218.162V218.261L267.696 218.352L274.964 236.001L253.018 232.3L252.977 232.293H252.935H238.474H238.405L238.338 232.312L224.704 236.143H201.939H180.291L177.315 218.08L177.246 217.662H176.822H156.271H155.771V218.162V243.074H145.615H145.115V243.574V260.882L115.67 232.58ZM253.023 141.959L267.487 129.52L260.288 119.322H246.846H246.754L246.667 119.289L218.592 108.541H184.433H184.248L184.108 108.42L159.509 87.3036L146.076 119.017L145.906 119.417L145.486 119.305L105.21 108.541H85.4858H44.6044L34.8582 119.16L34.6126 119.427L34.2821 119.276L11.0174 108.646L1.5 119.016V133.893L20.9862 142.234L21.2895 142.364V142.694V170.846L44.479 179.928H59.6073H60.1073V180.428V190.191L74.9982 201.49H85.4858H114.911L122.373 190.921L122.413 190.864L122.467 190.82L129.974 184.744L135.254 171.008L135.304 170.878L135.414 170.792L145.308 163.092L145.346 163.062L145.39 163.04L155.913 157.717L161.166 148.605L161.212 148.525L161.285 148.466L168.865 142.33L176.322 134.032V129.603V129.103H176.822H184.433H184.736L184.876 129.371L191.586 142.194H201.939H202.103L202.236 142.291L210.312 148.234L218.324 142.338L224.367 133.931L224.517 133.723H224.773H238.474H246.846H247.103L247.252 133.931L253.023 141.959ZM268.566 129.314L261.512 119.322H299.24L328.052 134.665L328.247 134.768L328.456 134.694L341.313 130.103H360.897L369.65 134.531V148.721L364.459 157.724L354.688 163.047L354.552 163.121L354.481 163.26L340.781 190.212L340.727 190.319V190.439V206.61V232.793V236.566L335.011 254.638L328.724 243.331L328.425 242.793L327.96 243.196L317.304 252.437L317.132 252.587V252.815V261.156L308.001 255.471L307.88 255.395H307.737H299.364H289.661L276.269 243.351V236.643V236.545L276.232 236.453L268.658 218.063V205.07V185.048V184.92L268.596 184.808L261.047 171.059V158.096V142.829L268.59 129.854L268.751 129.577L268.566 129.314ZM307.594 256.395L316.613 262.011L299.139 270.851L298.917 270.963L298.873 271.207L295.067 291.999L295.061 292.028L295.06 292.058L293.552 316.514L275.479 329.416L275.425 329.454L275.383 329.505L268.264 338.149L260.995 323.441L260.781 323.008L260.342 323.206L246.641 329.367L246.546 329.41L246.476 329.487L238.103 338.728L237.917 338.933L237.993 339.2L242.54 355.305V365.516H230.101H229.975L229.864 365.576L218.558 371.677H201.939H201.778L201.646 371.772L191.002 379.464L176.676 388.619H161.961L156.746 372.791L156.691 372.624L156.544 372.528L145.888 365.597L145.487 365.336L145.208 365.726L135.314 379.587L135.221 379.718V379.878V393.998L115.769 372.859L136.149 330.854L169.611 286.228L169.869 285.884L169.566 285.577L146.115 261.851V244.074H156.271H156.771V243.574V218.662H176.398L179.373 236.725L179.442 237.143H179.866H201.939H224.773H224.842L224.909 237.125L238.543 233.293H252.893L275.269 237.066V243.574V243.797L275.435 243.946L289.135 256.267L289.278 256.395H289.47H299.364H307.594Z" fill="black"/>
</svg>
